PathFileType	4	(X/Y/Z)	Kaydara	
DataRate	CameraRate	NumFrames	NumMarkers	Units	OrigDataRate	OrigDataStartFrame	OrigNumFrames	
120.00	120.00	4	72	mm	120.00	101	268	
Frame#	Time	Hips			RightUpLeg			RightLeg			RightFoot			RightFoot_End			LeftUpLeg			LeftLeg			LeftFoot			LeftFoot_End			Spine			Spine1			Spine2			Spine3			Neck			Head			Head_End			RightShoulder			RightArm			RightForeArm			RightHand			RightHandThumb1			RightHandThumb2			RightHandThumb3			RightHandThumb3_End			RightInHandIndex			RightHandIndex1			RightHandIndex2			RightHandIndex3			RightHandIndex3_End			RightInHandMiddle			RightHandMiddle1			RightHandMiddle2			RightHandMiddle3			RightHandMiddle3_End			RightInHandRing			RightHandRing1			RightHandRing2			RightHandRing3			RightHandRing3_End			RightInHandPinky			RightHandPinky1			RightHandPinky2			RightHandPinky3			RightHandPinky3_End			LeftShoulder			LeftArm			LeftForeArm			LeftHand			LeftHandThumb1			LeftHandThumb2			LeftHandThumb3			LeftHandThumb3_End			LeftInHandIndex			LeftHandIndex1			LeftHandIndex2			LeftHandIndex3			LeftHandIndex3_End			LeftInHandMiddle			LeftHandMiddle1			LeftHandMiddle2			LeftHandMiddle3			LeftHandMiddle3_End			LeftInHandRing			LeftHandRing1			LeftHandRing2			LeftHandRing3			LeftHandRing3_End			LeftInHandPinky			LeftHandPinky1			LeftHandPinky2			LeftHandPinky3			LeftHandPinky3_End			
		X1	Y1	Z1	X2	Y2	Z2	X3	Y3	Z3	X4	Y4	Z4	X5	Y5	Z5	X6	Y6	Z6	X7	Y7	Z7	X8	Y8	Z8	X9	Y9	Z9	X10	Y10	Z10	X11	Y11	Z11	X12	Y12	Z12	X13	Y13	Z13	X14	Y14	Z14	X15	Y15	Z15	X16	Y16	Z16	X17	Y17	Z17	X18	Y18	Z18	X19	Y19	Z19	X20	Y20	Z20	X21	Y21	Z21	X22	Y22	Z22	X23	Y23	Z23	X24	Y24	Z24	X25	Y25	Z25	X26	Y26	Z26	X27	Y27	Z27	X28	Y28	Z28	X29	Y29	Z29	X30	Y30	Z30	X31	Y31	Z31	X32	Y32	Z32	X33	Y33	Z33	X34	Y34	Z34	X35	Y35	Z35	X36	Y36	Z36	X37	Y37	Z37	X38	Y38	Z38	X39	Y39	Z39	X40	Y40	Z40	X41	Y41	Z41	X42	Y42	Z42	X43	Y43	Z43	X44	Y44	Z44	X45	Y45	Z45	X46	Y46	Z46	X47	Y47	Z47	X48	Y48	Z48	X49	Y49	Z49	X50	Y50	Z50	X51	Y51	Z51	X52	Y52	Z52	X53	Y53	Z53	X54	Y54	Z54	X55	Y55	Z55	X56	Y56	Z56	X57	Y57	Z57	X58	Y58	Z58	X59	Y59	Z59	X60	Y60	Z60	X61	Y61	Z61	X62	Y62	Z62	X63	Y63	Z63	X64	Y64	Z64	X65	Y65	Z65	X66	Y66	Z66	X67	Y67	Z67	X68	Y68	Z68	X69	Y69	Z69	X70	Y70	Z70	X71	Y71	Z71	X72	Y72	Z72	

101	0.833	5446.805	859.65103	-201.189	5522.680750000622	851.860436386793	-235.2300857112724	5396.121944992402	457.29197637922687	-276.0062348272975	5451.12432978186	50.97318106824746	-350.18182175502693	5386.71645513848	-32.277640097509625	-195.4932544112592	5379.863445862285	839.5778768233946	-153.09126935929262	5253.280607488608	445.3723798281402	-92.70263817596155	5196.945113257535	66.54319449885554	69.99812110444151	5241.194662572812	18.955117727931334	247.67757619287977	5403.09878393984	981.8205528365974	-260.6139528344125	5351.024707182847	1048.8628229824187	-306.9482849465153	5290.702282187682	1113.1730427873808	-355.2534813002137	5224.645791227121	1165.708333276489	-401.6743261053281	5153.1338003653145	1221.9606189349722	-447.72968358698324	5110.091302169962	1293.6925744303148	-404.88185469657515	5085.116849247415	1380.1425585213585	-273.83423042182926	5193.00755867753	1209.1170984713574	-450.22134183656243	5259.950794900551	1211.2537454937765	-518.0258334265498	5331.447116651841	1009.1477411848517	-519.808257647807	5411.463628494611	951.4694512554653	-598.1229088827491	5413.54026249427	963.6365565023187	-607.5953174494026	5405.839888449236	969.9067642738419	-622.2970028275262	5401.960822946758	972.0735224680041	-631.9522472942796	5399.996090149393	971.997965339817	-639.5026576102063	5420.621725347867	956.903784560947	-605.8020571962778	5433.306923342187	956.8909326022101	-617.8549870644518	5433.7319465958735	956.6861522606323	-629.3001907221466	5427.1912118846585	958.2442870611023	-637.6336151747732	5417.187287146289	960.6708435977537	-645.3527252093091	5423.815636292192	950.9117791112415	-603.9421877045063	5437.918381621959	947.6582163374433	-614.6913741380658	5438.751952298192	946.643924995573	-626.8996831281829	5431.038230609638	948.1442654509489	-636.8189626317419	5420.1783739717885	950.6148715464083	-645.1995945810735	5425.845969349994	946.6663554512326	-602.2881556732254	5440.532704226608	940.0289244112637	-610.390786267251	5441.61390618664	938.3418131846992	-620.7281290866865	5434.361734411779	939.3625487380332	-630.134905666494	5424.239968276313	941.4834536153943	-637.93844241544	5427.05013651035	941.871289627826	-600.2883106684623	5441.594485023526	932.7857408168913	-606.3820755427379	5442.948803312598	930.2109547956613	-614.1512935616792	5437.895361556214	930.3634859528296	-620.7666384004597	5429.065126681892	931.9015620529302	-627.5377306895537	5160.288149834707	1200.2606723893346	-413.0002547669155	5113.01370048932	1144.284978758011	-347.19804337085077	5203.709306281582	1023.9827585434949	-493.25188685635277	5361.171022003593	971.3104957760763	-470.9073380012128	5357.213634578925	983.7575003633503	-474.5543383161061	5364.896320381809	985.2450047095169	-497.660328291038	5370.79236720303	984.3577917277339	-515.886600823654	5376.174588375097	981.972985147065	-532.9077100445752	5357.737679530866	978.6658041311839	-481.38206150202944	5359.147455506614	979.9145619254366	-510.3400851872812	5365.841373549307	977.257344606103	-536.6946448289203	5372.584758784217	975.1394487252068	-552.4975026265953	5379.907745360464	973.0721975800403	-565.1851051736696	5359.4447079201755	973.2241769950999	-486.4765254676318	5361.741465819656	971.4998060430951	-517.475141909127	5369.273663050493	967.8737891053806	-546.8192296993295	5377.518633177501	964.9700135782771	-566.1660039160392	5385.584456126827	962.5385929502955	-580.1852455590422	5360.560591473321	969.3712816683021	-489.2935410017386	5363.42915322102	964.550014869809	-519.393294421943	5370.224062770259	960.6494998300271	-545.5203086634037	5378.299041229597	957.4555617602913	-564.4742075357963	5385.940786266656	954.9831685680842	-577.7943844223684	5362.232512665492	964.7094504787977	-492.04215250875956	5365.712999006262	957.4926062870979	-521.2081659020647	5371.500538266387	953.2354873153282	-542.85776414345	5377.558040162165	950.357391737197	-557.0349992863274	5384.423827434592	947.8516320463145	-569.037197030405
102	0.842	5446.805	859.65103	-201.189	5522.319787915449	851.6765840574334	-235.63808738509607	5396.231733736202	456.95460671270456	-276.0362478735392	5452.195039396476	51.12760902017833	-351.1247988044144	5388.27811464196	-32.29717844333868	-196.43921222481134	5380.224018946262	839.7524143356829	-152.69763478302355	5254.025373855407	445.4087101316805	-92.51928374317143	5197.561300869967	66.3704449235249	69.64516539536744	5242.112432447847	18.68368425135114	247.24173310456305	5403.121928128455	981.8725703610577	-260.5258646789467	5351.048106882177	1048.9468463565006	-306.83007132284564	5290.732008922451	1113.294343935794	-355.1113792437609	5224.689130462325	1165.8754810766675	-401.52817301435607	5153.1758333399885	1222.1577299257951	-447.5841840048999	5109.914711896611	1293.769368661067	-404.80877195068786	5084.958149773333	1380.1590150677278	-273.7319057338332	5192.95210405308	1209.1821435142388	-450.19112563290156	5259.520727184299	1210.622242666568	-518.4138619587388	5329.383789217466	1007.8168269444823	-519.6850961224945	5407.276192761636	947.7949415375333	-597.8687251317307	5409.496002479502	959.4330667820242	-607.6295666289055	5401.699569476352	965.2325891303835	-622.5760184960386	5397.6834431508205	967.0922009980061	-632.3526347902548	5395.544424307825	966.7782458025188	-639.96223785309	5416.341015765656	952.7175193635868	-605.6789340744638	5428.615018641443	952.0347395980473	-617.7842561912526	5428.743539012158	951.4077045291139	-629.3080326773244	5422.101849869191	952.7626193090136	-637.7493391063496	5412.070608213282	955.0609671502989	-645.597562852716	5419.3579084612375	946.8070550246111	-603.6857432636405	5432.963840236719	942.9441581263031	-614.4139059424894	5433.4518310537	941.4820900896208	-626.6902444865292	5425.605736937264	942.7434851304442	-636.7311818886216	5414.710850282494	945.076837387488	-645.2489565596915	5421.27323589968	942.6358910421562	-601.935444684716	5435.413619554089	935.5155368293408	-609.933508116073	5436.171877160994	933.4523811704104	-620.3120867548989	5428.780479205867	934.2501969891365	-629.8266219117936	5418.620306175055	936.2456323809035	-637.7545628422523	5422.360195251555	937.9493248302608	-599.8289434808498	5436.329581865344	928.4860230542283	-605.7585870701657	5437.393773992674	925.6344389449837	-613.5331128201168	5432.223530911656	925.6361378171945	-620.2136517998968	5423.350497604368	927.0698401716029	-627.0872308771974	5160.449067720143	1200.577146820522	-412.7510138420305	5113.4635397831335	1145.0327674478604	-346.3480045820807	5202.768250857104	1023.3725209484421	-491.97996649045945	5358.967394238205	968.1860828245946	-470.4461886290062	5354.625600796002	980.3917065024019	-474.33420317154594	5362.265016944705	981.7594325432669	-497.47929440788096	5368.1777764530125	980.7757437423082	-515.6785215899434	5373.614005923373	978.29933530577	-532.6306529406938	5355.257139133879	975.2094716788554	-480.99508286427186	5356.526476372143	975.9959256375276	-509.8408618149834	5363.257098593286	973.132197399849	-536.087359801558	5370.069832279102	970.995664204682	-551.8595177610447	5377.481603944028	968.9870172869785	-564.5463189601033	5357.1028587156125	969.7538842857848	-485.9444090239989	5359.337616818359	967.5710122424221	-516.7550489153185	5366.928788989192	963.719452146353	-545.9623961223307	5375.2665063704235	960.7930966215251	-565.2630995253407	5383.433891065934	958.4257536291144	-579.2770728749528	5358.319224780107	965.9015760975662	-488.66167625366376	5361.2162685981375	960.6659691106948	-518.5061626073621	5368.0820324600445	956.569404292235	-544.4950501299505	5376.256802705639	953.3539701385533	-563.3944505055956	5383.998936621991	950.9419608278623	-576.704906738875	5360.119587116605	961.2644279492007	-491.2991493849234	5363.701688602471	953.6781004656345	-520.1622356035532	5369.576195581853	949.2666428351677	-541.6727878425564	5375.721109526405	946.3741502629617	-555.7965144829449	5382.684240949786	943.9226187166171	-567.7821840201108
103	0.85	5446.805	859.65103	-201.189	5521.948152607434	851.4913786317845	-236.03914940770375	5396.351439535785	456.6125756304218	-276.0841399539551	5453.262317134796	51.28990052702043	-352.11051166924466	5389.861270302941	-32.31050967376486	-197.42887647732255	5380.593217633952	839.9266148255654	-152.31346407152554	5254.815512009753	445.44099368863857	-92.29537685915973	5198.191961201406	66.2073519682964	69.35244533560524	5243.02316912305	18.422472967760523	246.86971922561838	5403.154675101267	981.9320756909179	-260.42716434610026	5351.089054516408	1049.0451635045229	-306.6995313682388	5290.787972547481	1113.437290012298	-354.9568750594971	5224.768282513619	1166.072808094727	-401.37231004497374	5153.263701311544	1222.3939725685213	-447.4318611113975	5109.789286755102	1293.890437396223	-404.73209989127446	5084.856196832974	1380.2234005436121	-273.6275354715946	5192.938637470296	1209.2827520819174	-450.1494794665432	5259.132304960743	1210.0285428198436	-518.7777063983392	5327.401550465764	1006.5492733651662	-519.5558258864189	5403.199398980768	944.162670348583	-597.6842308330322	5405.581763568821	955.2748722736612	-607.7412905435306	5397.708616769718	960.6079639712377	-622.9447872703533	5393.566765798705	962.161454611378	-632.8525409642325	5391.261084250341	961.6082980872409	-640.5305172240573	5412.184039433751	948.5691197975245	-605.6384730920624	5424.060706888409	947.2058462388252	-617.8200085937432	5423.904557213108	946.1532794833138	-629.4383046323242	5417.171135348495	947.307572739773	-637.9942229812291	5407.121467770351	949.4829896194937	-645.9749830546912	5415.017726445041	942.7354871940097	-603.5144061711753	5428.13701558371	938.2504019986293	-614.2461023378895	5428.2914798781185	936.3363994067098	-626.6081161005189	5420.323726973859	937.3617047460518	-636.7789482117149	5409.40333835112	939.5634422026548	-645.4376675903932	5416.813289748063	938.6354692417507	-601.6689798305077	5430.412208829231	931.0178046847958	-609.5855286586191	5430.857134527006	928.5744065903173	-620.0209342157507	5423.336370178547	929.1517524066113	-629.6512850953759	5413.146524240419	931.0268759866597	-637.7072581496881	5417.7774185894605	934.054562429457	-599.4562944724928	5431.172751240476	924.198369055656	-605.2433231596361	5431.953099855545	921.065792866048	-613.0358700968123	5426.672562867083	920.9180436596766	-619.787590731342	5417.764074189677	922.2517093976666	-626.7669340180498	5160.653026585956	1200.9300888507175	-412.4978085585117	5113.959018131589	1145.8181358832212	-345.5048786305267	5201.875304931724	1022.8085643535899	-490.70542397025457	5356.842656952549	965.1411661783668	-470.0307736837659	5352.116203148753	977.1129939264121	-474.1750123472729	5359.705377614167	978.3519207833211	-497.36113891457063	5365.627597054267	977.2637843173479	-515.5327325570512	5371.109737491399	974.6876827540272	-532.413740302393	5352.846440062665	971.8360932359626	-480.66445115925103	5353.953383567123	972.1539156979828	-509.4029392320694	5360.7063777020385	969.0726817452195	-535.5397816179557	5367.583725472734	966.9089251997259	-551.2786734768949	5375.083180441059	964.9505950382941	-563.9614866042925	5354.825139252251	966.3618567990549	-485.4629644355947	5356.973393607714	963.7117775504723	-516.0873913911971	5364.6072201386	959.6220704068793	-545.1554875157332	5373.03164603356	956.6624851653895	-564.4066539312979	5381.2992279958535	954.3500103381552	-578.4116922293487	5356.138483166967	962.5070392289995	-488.0763870195312	5359.038919597671	956.8467614262104	-517.6637465616967	5365.960655330032	952.5425545795754	-543.5115277769584	5374.2290434594	949.2950296470063	-562.3526659357301	5382.070117893063	946.9345923456829	-575.6497546898929	5358.064116993688	957.8907582094527	-490.5975456183884	5361.722761048445	949.9233010162098	-519.1529420832012	5367.671402546767	945.3473202441705	-540.5208354473504	5373.898782217192	942.4322666203341	-554.5877148155836	5380.957719780411	940.0269062554611	-566.5532840747468
104	0.858	5446.805	859.65103	-201.189	5521.565513612095	851.3051317676765	-236.43112533915257	5396.480439898124	456.26667164471405	-276.1487880787007	5454.321473717649	51.46056948027201	-353.13566119353834	5391.46216372829	-32.317342146796484	-198.45990880336848	5380.971186222115	840.1001262896417	-151.94089377754605	5255.645578720645	445.4708174606268	-92.0312460568936	5198.832896123681	66.05587809769006	69.12105677198718	5243.923414187943	18.172932708437514	246.5622372948894	5403.197860983616	981.9992273212272	-260.3180258673729	5351.148872335718	1049.15839389261	-306.556545486267	5290.871976663127	1113.6030537116235	-354.78947409223224	5224.885526763399	1166.3022064933994	-401.2057639281284	5153.400271613707	1222.6721029585424	-447.2711698895307	5109.719097050563	1294.0592658268874	-404.65002765573354	5084.814798558299	1380.339703732731	-273.51976794350827	5192.969773130678	1209.421885855922	-450.09401242137295	5258.788128535962	1209.4801035890582	-519.1101714647699	5325.514004957663	1005.3604290675291	-519.4108891765025	5399.258431468944	940.6093943641837	-597.5573044801226	5401.82167136973	951.2035979965194	-607.9161288144418	5393.891977378702	956.078219365392	-623.3871461188404	5389.636814948658	957.3290173065301	-633.4348699436146	5387.173423867586	956.5377083011672	-641.18989809749	5408.176604255525	944.5001671533466	-605.6672948632818	5419.672754965724	942.4519243125625	-617.9480078518893	5419.245991263001	940.974015266733	-629.6760123054714	5412.430889630838	941.9316884368591	-638.3525165102225	5402.372003545194	943.9901059931595	-646.4684176427508	5410.822176357878	938.7379264959242	-603.4156964258539	5423.468571211441	933.6233444534201	-614.1751339200589	5423.304147517356	931.2569148311921	-626.63976284023	5415.2265287581695	932.0506225869843	-636.9478725594315	5404.290549586566	934.1270724554054	-645.7504720043765	5412.494046779004	934.7052773595486	-601.4769419716913	5425.560320839484	926.5803323447566	-609.3352997628082	5425.703937462153	923.755560062541	-619.8426326659603	5418.06479100815	924.1163958024592	-629.5960988343514	5407.854406156288	925.8769799567726	-637.7829484207576	5413.330575518559	930.2261863116446	-599.1593028340143	5426.156903736738	919.9654238516607	-604.8259508025506	5426.661849599876	916.5498971170318	-612.64903240399	5421.27845660853	916.2550792477778	-619.4774629526698	5412.342273427408	917.4935288385172	-626.5652075017159	5160.902660952289	1201.321385533133	-412.2403129469597	5114.502820768466	1146.6417258068307	-344.67381365996243	5201.04087027263	1022.3024723811441	-489.4311218368904	5354.809036054013	962.2064805384605	-469.6552678902263	5349.700361531302	973.9542810362428	-474.068655327527	5357.23308992163	975.0569763360751	-497.29664745822737	5363.157829500747	973.8576154956875	-515.4396481792426	5368.677854884305	971.1748019180508	-532.2474172061447	5350.520122025207	968.579239082685	-480.3832511297842	5351.444707224296	968.4261903509858	-509.0192977682113	5358.206233605886	965.1185910955592	-535.0449251932693	5365.1433035014325	962.9195734942492	-550.7477493467057	5372.728896673861	961.003200916894	-563.4230196282111	5352.625374764875	963.0817305980486	-485.0263663708892	5354.664176617537	959.9597610891807	-515.4668316729411	5362.324772604343	955.6216274818797	-544.3933482383009	5370.829629268259	952.6188217150144	-563.5912967943553	5379.195535192035	950.3519258516519	-577.5833642325813	5354.031644308582	959.2212578824233	-487.5326221495169	5356.911325775567	953.1295665121655	-516.8621085881662	5363.874424038365	948.6081393855054	-542.5661092513986	5372.229968980996	945.3185581616791	-561.3450922775555	5380.168030309253	943.0008030044378	-574.6248566425345	5356.0786281149885	954.621785140647	-489.93317364571226	5359.789170053993	946.2647230068072	-518.1776887202674	5365.799161032655	941.5156128789151	-539.399778829824	5372.103768151863	938.570276402248	-553.4064862688848	5379.256478790243	936.2029515732492	-565.3481708498773
